<svg xmlns="http://www.w3.org/2000/svg" width="44.031" height="46" viewBox="0 0 44.031 46">
  <defs>
    <style>
      .cls-1 {
        fill: #54d12d;
        fill-rule: evenodd;
      }
    </style>
  </defs>
  <path id="Forma_1" data-name="Forma 1" class="cls-1" d="M677.386,448.987a4.607,4.607,0,0,1-3.667-1.815l-11.791-15.5a4.565,4.565,0,0,1,.891-6.415,4.614,4.614,0,0,1,6.444.887l7.756,10.195,19.5-31.178a4.618,4.618,0,0,1,6.338-1.467A4.568,4.568,0,0,1,704.334,410l-23.042,36.829a4.6,4.6,0,0,1-3.7,2.154C677.525,448.986,677.456,448.987,677.386,448.987Z" transform="translate(-661 -403)"/>
</svg>
