<svg xmlns="http://www.w3.org/2000/svg" width="254.5" height="203.156" viewBox="0 0 254.5 203.156">
  <defs>
    <style>
      .cls-1 {
        fill: #fff;
        fill-rule: evenodd;
      }
    </style>
  </defs>
  <path id="OU" class="cls-1" d="M597.5,171.852a13.714,13.714,0,0,0-3.634-1.915,20.922,20.922,0,0,0-4.559-1.079,24.766,24.766,0,0,0-15.3,3.406,27.372,27.372,0,0,0-7.136,6.3,29.826,29.826,0,0,0-4.724,8.5,28.4,28.4,0,0,0-1.718,9.772,23.467,23.467,0,0,0,1.817,9.393,19.947,19.947,0,0,0,4.956,7.041,18.968,18.968,0,0,0,7.367,4.1,20.518,20.518,0,0,0,8.986.568,23.89,23.89,0,0,0,6.277-1.834,26.478,26.478,0,0,0,5.65-3.421,29.13,29.13,0,0,0,4.724-4.72,31.573,31.573,0,0,0,3.634-5.75v-15.54l-16.981,2.5v9.8l3.964-.584a12.335,12.335,0,0,1-3.171,3.232,9.49,9.49,0,0,1-4.1,1.618,8.416,8.416,0,0,1-3.6-.205,7.518,7.518,0,0,1-2.94-1.6,7.718,7.718,0,0,1-1.983-2.824,9.657,9.657,0,0,1-.726-3.813,12.257,12.257,0,0,1,.66-4.017,11.4,11.4,0,0,1,1.817-3.382,10.315,10.315,0,0,1,2.743-2.434,9.219,9.219,0,0,1,3.5-1.25,10.616,10.616,0,0,1,3.5.079,6.668,6.668,0,0,1,2.973,1.278Zm7.664,41.712,13.876-2.042,1.453-4.414,13.347-1.964,1.454,3.986,13.876-2.042-16.717-44.23-10.572,1.556Zm19.03-17.29,2.973-8.628,2.973,7.753Zm52.859,6.781a19.022,19.022,0,0,0,5.781-4.211,17.734,17.734,0,0,0,3.7-6.215,24.477,24.477,0,0,0,1.288-8.239V154.71l-14.14,2.081v29.05a6.921,6.921,0,0,1-.958,3.886,4.383,4.383,0,0,1-3.205,1.766q-2.247.332-3.2-.823a5.582,5.582,0,0,1-.958-3.6v-29.05l-14.074,2.071v29.68a21.3,21.3,0,0,0,1.288,7.86,12.089,12.089,0,0,0,3.667,5.131,12.824,12.824,0,0,0,5.749,2.514,23.02,23.02,0,0,0,7.532.011A26.152,26.152,0,0,0,677.053,203.055ZM694.364,187.1a18.658,18.658,0,0,0,4.955,7.006,18.434,18.434,0,0,0,7.533,3.9,23.672,23.672,0,0,0,9.515.385,27.266,27.266,0,0,0,6.805-1.842,40.406,40.406,0,0,0,5.088-2.568,23.976,23.976,0,0,0,4.229-3.353L725.551,178.7a12.725,12.725,0,0,1-2.313,2.161,16.051,16.051,0,0,1-2.775,1.668,12.819,12.819,0,0,1-3.766,1.114,9.2,9.2,0,0,1-3.9-.2,8.074,8.074,0,0,1-3.106-1.643,7.984,7.984,0,0,1-2.081-2.809,8.841,8.841,0,0,1-.76-3.7,10.84,10.84,0,0,1,.727-3.922,11.736,11.736,0,0,1,2.015-3.411,11.9,11.9,0,0,1,3.006-2.543,10.2,10.2,0,0,1,3.767-1.324,10.624,10.624,0,0,1,3.535,0,18.806,18.806,0,0,1,2.676.691,19.194,19.194,0,0,1,2.312,1.27l6.938-13.971a19.547,19.547,0,0,0-4.229-1.828,27.246,27.246,0,0,0-5.054-1.006,26.023,26.023,0,0,0-6.707.217,26.371,26.371,0,0,0-8.986,3.037,26.787,26.787,0,0,0-7.4,6.024,28.589,28.589,0,0,0-6.872,18.862A24.9,24.9,0,0,0,694.364,187.1Zm41.1,7.287,14.074-2.071v-17.29l7.863-1.158v17.29l14.14-2.081v-46.69L757.4,144.47v15.89l-7.863,1.158v-15.89L735.462,147.7v46.69Zm42.024-6.185,26.43-3.889v-12.25l-12.356,1.818v-5.39l11.7-1.721v-11.62l-11.7,1.721v-5.18l11.893-1.75v-12.25l-25.967,3.821V188.2ZM567.965,339.039a40.8,40.8,0,0,0,11.068-3.134,26.829,26.829,0,0,0,8.193-5.651,23.186,23.186,0,0,0,5.088-8.064,29.171,29.171,0,0,0,1.751-10.372,25.144,25.144,0,0,0-1.751-9.858,15.457,15.457,0,0,0-5.088-6.566,18.408,18.408,0,0,0-8.193-3.2,37.2,37.2,0,0,0-11.068.159l-12.224,1.8v46.69Zm1.85-33.662q4.956-.731,7.665,1.322t2.709,7.161q0,5.111-2.709,7.994a12.674,12.674,0,0,1-7.665,3.613v-20.09Zm29.2,29.092,14.074-2.072v-11.83l6.607,10.858,16.519-2.431-8.259-14.185a18.32,18.32,0,0,0,2.973-3.517,22.091,22.091,0,0,0,2.048-4.362,18.062,18.062,0,0,0,.925-6.086,17.769,17.769,0,0,0-1.486-7.586,12.963,12.963,0,0,0-4.13-5.1,15.1,15.1,0,0,0-6.244-2.581,23.97,23.97,0,0,0-7.83-.038l-15.2,2.237v46.69Zm14.074-36.162,0.727-.107a6.8,6.8,0,0,1,4.262.563q1.749,0.935,1.751,3.732a5.2,5.2,0,0,1-1.751,4.248,8.471,8.471,0,0,1-4.262,1.817l-0.727.107v-10.36Zm26.595,16.386a20.3,20.3,0,0,0,4.955,7.076,19.124,19.124,0,0,0,7.367,4.166,20.194,20.194,0,0,0,8.987.6,24.05,24.05,0,0,0,8.986-3.247,28.816,28.816,0,0,0,7.367-6.334,30.171,30.171,0,0,0,4.956-8.535,27.161,27.161,0,0,0,1.817-9.787,23.126,23.126,0,0,0-1.817-9.253,20.348,20.348,0,0,0-4.956-7.075,19.164,19.164,0,0,0-7.367-4.166,20.206,20.206,0,0,0-8.986-.6,24.062,24.062,0,0,0-8.987,3.248,28.822,28.822,0,0,0-7.367,6.334,30.157,30.157,0,0,0-4.955,8.534,27.132,27.132,0,0,0-1.818,9.788A23.081,23.081,0,0,0,639.689,314.693Zm12.785-15.216a12.086,12.086,0,0,1,1.982-3.407,11.585,11.585,0,0,1,2.941-2.533,9.628,9.628,0,0,1,3.6-1.3,8.078,8.078,0,0,1,3.6.241,7.677,7.677,0,0,1,2.94,1.667,8.162,8.162,0,0,1,1.982,2.823,9.227,9.227,0,0,1,.727,3.708,10.832,10.832,0,0,1-.727,3.922,12.12,12.12,0,0,1-1.982,3.407,11.558,11.558,0,0,1-2.94,2.533,9.587,9.587,0,0,1-3.6,1.3,8.033,8.033,0,0,1-3.6-.24,7.648,7.648,0,0,1-2.941-1.667,8.126,8.126,0,0,1-1.982-2.823,9.223,9.223,0,0,1-.727-3.708A10.836,10.836,0,0,1,652.474,299.477Zm36.6,21.738,14.933-2.2v-46.69l-14.933,2.2v46.69Zm26.693-3.929,14.537-2.139v-34.44l8.127-1.2v-12.25l-30.791,4.531v12.25l8.127-1.2v34.44Zm26.3-3.87,26.43-3.889v-12.25L756.143,299.1v-5.39l11.7-1.721v-11.62l-11.7,1.721V276.9l11.894-1.75V262.9l-25.968,3.821v46.69Zm60.788-22.736a11.285,11.285,0,0,1,1.157-4.93q1.155-2.409,2.544-4.924t2.544-5.17a14.214,14.214,0,0,0,1.156-5.735,13.068,13.068,0,0,0-1.19-5.7,10.639,10.639,0,0,0-3.336-4.059,12.553,12.553,0,0,0-5.187-2.141,20.725,20.725,0,0,0-6.806-.014q-0.926.137-1.619,0.274t-1.42.314c-0.486.118-1.024,0.267-1.619,0.448s-1.289.4-2.082,0.656v13.02l1.388-.2a20.405,20.405,0,0,1,2.412-.215,5.285,5.285,0,0,1,2.015.3,3.023,3.023,0,0,1,1.388,1.056,3.458,3.458,0,0,1,.528,2.057,6.177,6.177,0,0,1-.925,3.077q-0.925,1.605-2.048,3.591a29.819,29.819,0,0,0-2.048,4.536,17.054,17.054,0,0,0-.925,5.842Zm-14.073,15.862,14.14-2.081v-11.69l-14.14,2.081v11.69ZM717,237h87v4H717v-4Zm-43.25-2.637a5.7,5.7,0,0,1,.988,3.768,23.571,23.571,0,0,1-.656,5.441,15.093,15.093,0,0,1-1.615,4.331,6.207,6.207,0,0,1-1.755,1.93,5.438,5.438,0,0,1-2.316.872,3.173,3.173,0,0,1-3.075-.907,5.973,5.973,0,0,1-1.04-3.925,23.529,23.529,0,0,1,.553-5.05,14.941,14.941,0,0,1,1.424-4.069,6.524,6.524,0,0,1,1.873-2.213,5.829,5.829,0,0,1,2.6-1.007A3.151,3.151,0,0,1,673.75,234.363Zm-13.171,18.094q2.64,2.088,7.213,1.415a15.241,15.241,0,0,0,4.963-1.6,14.878,14.878,0,0,0,4.063-3.184,16.082,16.082,0,0,0,3.031-4.915,15.052,15.052,0,0,0,1.084-5.55q0-4.359-2.566-6.568t-6.918-1.568a15.444,15.444,0,0,0-5.4,1.843,15.845,15.845,0,0,0-4.417,3.728A16.094,16.094,0,0,0,658.9,240.8a15.156,15.156,0,0,0-.959,5.274Q657.939,250.37,660.579,252.457Zm23.392-21.325a3.193,3.193,0,0,1,1.7.039,1.073,1.073,0,0,1,.428,1.039,10.28,10.28,0,0,1-.125,1.253q-0.126.878-.391,2.5-0.177,1.1-.531,3.078a41.906,41.906,0,0,0-.738,5.562,5.328,5.328,0,0,0,2.191,4.63,7.709,7.709,0,0,0,5.788,1.039,12.028,12.028,0,0,0,5.288-2.091,10.9,10.9,0,0,0,3.562-4.164,32.006,32.006,0,0,0,1.814-7.721q0.088-.621.147-0.974,0.1-.687.281-1.932,0.736-5.25,2.64-5.529,0.236-.034.339-0.042c0.069,0,.137-0.008.206-0.007l0.266-1.821-0.929.184q-2.331.483-3.171,0.607t-3.127.32l-0.974.1-0.28,1.823,0.28-.042a2.145,2.145,0,0,1,1.49.156,1.379,1.379,0,0,1,.443,1.2q0,0.75-.664,5.457l-0.03.27-0.162,1.149q-0.723,5.247-1.947,7.067a5.115,5.115,0,0,1-3.7,2.186,3.591,3.591,0,0,1-3.016-.689,3.688,3.688,0,0,1-1.113-2.938,16.013,16.013,0,0,1,.169-1.876q0.169-1.282.524-3.4l0.324-1.876q0.073-.447.207-1.264,0.708-4.479,2.669-4.768c0.059-.009.15-0.017,0.273-0.025s0.214-.016.273-0.024l0.295-1.825q-1.637.335-2.972,0.578t-2.338.391q-0.8.117-2.064,0.257t-2.98.3ZM556,237h92v4H556v-4Z" transform="translate(-555.75 -137.688)"/>
</svg>
